<?xml version="1.0" encoding="utf-8"?>
<!-- Generator: Adobe Illustrator 16.0.0, SVG Export Plug-In . SVG Version: 6.00 Build 0)  -->
<!DOCTYPE svg PUBLIC "-//W3C//DTD SVG 1.1//EN" "http://www.w3.org/Graphics/SVG/1.1/DTD/svg11.dtd">
<svg version="1.1" id="Layer_1" xmlns="http://www.w3.org/2000/svg" xmlns:xlink="http://www.w3.org/1999/xlink" x="0px" y="0px"
	 width="112px" height="112px" viewBox="1194 486.5 112 112" enable-background="new 1194 486.5 112 112" xml:space="preserve">
<g>
	<path fill="#FFFFFF" d="M1216.679,564.681c-0.176-0.174-0.307-0.567-0.307-0.832c0-0.307-0.176-2.97-0.394-5.941l-0.394-5.42
		l0.438-9.57c0.436-9.744,0.48-10.093,1.224-10.093c0.131,0,0.394,0.086,0.569,0.262c0.262,0.218,0.394,1.441,0.83,9.656
		l0.525,9.438l-0.525,6.161c-0.307,3.408-0.612,6.293-0.743,6.422c-0.307,0.352-0.832,0.307-1.224-0.042V564.681L1216.679,564.681z
		 M1221.134,564.552c-0.218-0.308-0.394-2.143-0.699-6.556c-0.349-5.245-0.394-6.73-0.218-10.661
		c0.087-2.493,0.262-7.43,0.394-10.971c0.131-3.539,0.263-6.642,0.307-6.991c0.176-1.137,1.486-1.31,1.748-0.218
		c0.044,0.218,0.307,5.505,0.569,11.708l0.48,11.32l-0.48,5.855c-0.17,2.025-0.33,4.05-0.48,6.075c0,0.347-0.569,0.829-0.961,0.829
		c-0.22,0-0.48-0.175-0.656-0.436v0.043H1221.134z M1225.681,564.638c-0.307-0.307-0.394-0.787-0.48-3.059
		c-0.089-1.485-0.22-3.715-0.307-4.938c-0.262-3.101-0.22-7.123,0.087-16.693c0.176-4.542,0.307-9.131,0.307-10.268
		c0.044-2.316,0.22-3.014,0.832-3.19c0.743-0.176,1.31,0.349,1.31,1.268c0,0.438,0.218,6.117,0.438,12.585l0.438,11.756
		l-0.438,5.899c-0.22,3.231-0.438,5.984-0.438,6.118c0,0.347-0.569,0.83-1.005,0.83c-0.218,0-0.525-0.176-0.743-0.35V564.638z
		 M1230.225,564.638c-0.218-0.262-0.35-0.787-0.438-1.617c-0.656-9.963-0.656-10.663-0.349-21.062
		c0.394-14.332,0.48-15.688,0.83-16.038c0.35-0.349,1.312-0.349,1.617,0c0.176,0.176,0.307,2.709,0.525,8.39
		c0.525,15.861,0.569,18.396,0.218,23.596c-0.394,5.898-0.436,6.422-0.83,6.771c-0.394,0.393-1.092,0.352-1.53-0.088
		L1230.225,564.638L1230.225,564.638z M1234.769,564.594c-0.218-0.22-0.394-0.698-0.394-1.005c0-0.308-0.131-2.928-0.307-5.812
		c-0.307-4.85-0.307-6.206,0-17.959c0.349-13.633,0.349-13.416,1.354-13.633c0.874-0.176,1.443,0.567,1.443,1.922
		c0,0.611,0.087,3.801,0.176,7.035c0.087,3.235,0.218,8.17,0.307,10.97c0.044,2.754,0.131,5.156,0.175,5.288
		c0.044,0.131-0.089,2.883-0.307,6.116c-0.148,2.097-0.279,4.196-0.394,6.295c0,0.522-0.699,1.224-1.311,1.224
		c-0.324-0.028-0.624-0.186-0.83-0.438h0.084V564.594z M1239.445,564.638c-0.394-0.394-0.438-0.874-0.83-7.865
		c-0.218-4.063-0.176-8.346,0.218-22.198c0.22-7.427,0.22-7.559,1.399-7.559c0.394,0,0.788,0.131,1.006,0.394
		c0.394,0.394,0.394,0.699,0.567,7.078c0.044,2.009,0.22,6.904,0.307,10.837c0.176,6.422,0.176,7.778-0.176,13.065
		c-0.349,5.682-0.394,5.899-0.83,6.248c-0.569,0.437-1.268,0.437-1.749,0H1239.445L1239.445,564.638z M1244.076,564.638
		c-0.262-0.262-0.394-0.742-0.48-1.617c-0.307-3.365-0.525-11.711-0.438-16.648c0.044-3.059,0.176-7.734,0.22-10.488
		c0.218-11.055,0.307-12.801,0.698-13.195c0.48-0.48,1.441-0.48,1.88,0c0.48,0.48,0.525,1.879,0.961,23.204
		c0.131,6.424-0.307,17.697-0.743,18.482c-0.394,0.744-1.53,0.873-2.142,0.262H1244.076L1244.076,564.638z M1248.84,564.594
		c-0.322-0.247-0.54-0.606-0.612-1.005c-0.044-0.352-0.22-3.192-0.394-6.338c-0.218-4.5-0.263-7.209-0.131-12.717
		c0.089-3.844,0.22-10.223,0.307-14.155c0.131-9.002,0.22-9.876,0.743-10.401c0.569-0.525,1.399-0.48,2.011,0.087
		c0.438,0.438,0.48,0.611,0.524,2.84c0,1.31,0.044,2.62,0.087,2.883c0.043,0.262,0.089,3.977,0.176,8.257
		c0.089,4.282,0.176,7.823,0.221,7.867c0.217,0.35,0.044,13.021-0.221,16.954c-0.119,1.602-0.223,3.203-0.307,4.807
		c0,0.48-0.875,1.311-1.442,1.311C1249.539,564.987,1249.101,564.813,1248.84,564.594L1248.84,564.594z M1253.077,564.507
		l-0.482-0.482v-45.181l0.525-0.394c0.611-0.48,2.928-1.223,5.245-1.704c2.491-0.48,6.555-0.438,9.133,0.087
		c10.31,2.142,17.652,10.051,19.313,20.799l0.132,0.699l1.706-0.48c1.441-0.394,1.966-0.48,3.844-0.394
		c2.666,0.131,2.796,0.131,4.542,0.785c7.694,2.927,11.187,11.798,7.474,19.14c-1.706,3.408-4.152,5.549-7.867,6.904l-1.396,0.525
		l-20.801,0.045l-20.799,0.044L1253.077,564.507L1253.077,564.507z M1212.09,564.331c-0.086-0.218-0.349-3.104-0.611-6.381
		c-0.438-5.768-0.438-6.031-0.131-9.699c0.176-2.055,0.351-4.588,0.438-5.594c0.131-1.835,0.438-2.711,0.918-2.711
		c0.612,0,0.788,0.7,1.312,6.25l0.525,5.681l-0.525,6.032c-0.263,3.318-0.569,6.206-0.656,6.467
		c-0.087,0.307-0.307,0.438-0.656,0.438c-0.349,0-0.525-0.131-0.656-0.438L1212.09,564.331L1212.09,564.331z M1207.721,564.42
		c-0.044-0.089-0.349-2.885-0.611-6.206l-0.525-6.031l0.525-6.249c0.262-3.452,0.611-6.382,0.7-6.511
		c0.263-0.307,0.656-0.307,0.919,0c0.131,0.131,0.48,3.017,0.787,6.469l0.567,6.205l-0.567,6.031
		c-0.307,3.32-0.611,6.119-0.656,6.248c-0.086,0.262-1.005,0.352-1.136,0.086v-0.042H1207.721z M1203.395,563.939
		c-0.087-0.131-0.394-2.796-0.656-5.943l-0.525-5.726l0.48-5.418c0.263-2.97,0.525-5.812,0.567-6.248
		c0.131-0.875,0.525-1.224,0.918-0.832c0.131,0.131,0.48,2.709,0.832,6.161l0.612,5.943l-0.569,5.726
		c-0.307,3.145-0.656,5.898-0.743,6.159c-0.218,0.482-0.656,0.569-0.918,0.22v-0.042H1203.395z M1198.982,562.104
		c-0.044-0.176-0.349-2.578-0.612-5.287l-0.525-4.938l0.567-5.025c0.525-4.807,0.612-5.025,1.005-5.111
		c0.48-0.09,0.436-0.307,1.224,5.768l0.567,4.542l-0.567,4.765c-0.307,2.622-0.656,4.938-0.743,5.198
		c-0.22,0.524-0.701,0.571-0.832,0.089H1198.982L1198.982,562.104z M1194.918,558.433c-0.206-1.088-0.381-2.18-0.525-3.277
		l-0.394-2.971l0.438-3.146c0.218-1.748,0.525-3.277,0.612-3.407c0.436-0.524,0.743,0.308,1.179,3.407l0.48,3.146l-0.48,3.145
		c-0.263,1.748-0.612,3.232-0.743,3.321c-0.349,0.218-0.48,0.175-0.612-0.176L1194.918,558.433z"/>
</g>
</svg>
