<?xml version="1.0" encoding="UTF-8" standalone="no"?><!-- Generator: Gravit.io --><svg xmlns="http://www.w3.org/2000/svg" xmlns:xlink="http://www.w3.org/1999/xlink" style="isolation:isolate" viewBox="0 0 48 48" width="48pt" height="48pt"><path d=" M 24 0 C 10.8 0 0 10.8 0 24 C 0 37.2 10.8 48 24 48 C 37.2 48 48 37.2 48 24 C 48 10.8 37.32 0 24 0 Z  M 35.042 34.68 C 34.562 35.398 33.722 35.64 33 35.16 C 27.36 31.68 20.28 30.958 11.878 32.878 C 11.042 33.122 10.32 32.52 10.08 31.8 C 9.84 30.958 10.44 30.24 11.16 30 C 20.28 27.958 28.2 28.8 34.44 32.64 C 35.28 33 35.398 33.958 35.042 34.68 Z  M 37.922 28.08 C 37.32 28.92 36.24 29.28 35.398 28.68 C 28.92 24.72 19.08 23.52 11.52 25.92 C 10.562 26.16 9.48 25.68 9.24 24.72 C 9 23.76 9.48 22.678 10.44 22.438 C 19.2 19.8 30 21.122 37.44 25.68 C 38.162 26.042 38.52 27.24 37.922 28.08 Z  M 38.162 21.36 C 30.48 16.8 17.64 16.32 10.32 18.602 C 9.12 18.96 7.92 18.24 7.56 17.16 C 7.2 15.958 7.92 14.76 9 14.398 C 17.52 11.878 31.56 12.358 40.442 17.64 C 41.52 18.24 41.88 19.68 41.28 20.76 C 40.682 21.602 39.24 21.958 38.162 21.36 Z " fill="rgb(255,255,255)"/></svg>