<?xml version="1.0" encoding="utf-8"?>
<!-- Generator: Adobe Illustrator 16.0.0, SVG Export Plug-In . SVG Version: 6.00 Build 0)  -->
<!DOCTYPE svg PUBLIC "-//W3C//DTD SVG 1.1//EN" "http://www.w3.org/Graphics/SVG/1.1/DTD/svg11.dtd">
<svg version="1.1" id="Layer_1" xmlns="http://www.w3.org/2000/svg" xmlns:xlink="http://www.w3.org/1999/xlink" x="0px" y="0px"
	 width="112px" height="112px" viewBox="0 0 112 112" enable-background="new 0 0 112 112" xml:space="preserve">
<path fill="#FFFFFF" d="M1.268,60.77c-0.234,0-0.419,0.182-0.449,0.44L0,67.43l0.819,6.114c0.03,0.259,0.215,0.438,0.449,0.438
	c0.227,0,0.411-0.179,0.447-0.435l0,0v-0.002c0,0,0,0,0,0.002l0.971-6.117l-0.971-6.223C1.68,60.951,1.494,60.77,1.268,60.77z
	 M5.875,57.371c-0.039-0.267-0.231-0.451-0.466-0.451c-0.238,0-0.434,0.189-0.467,0.451c0,0.003-1.101,10.059-1.101,10.059
	l1.101,9.836c0.032,0.264,0.229,0.454,0.467,0.454c0.234,0,0.426-0.186,0.464-0.451l1.253-9.839L5.875,57.371z M23.223,48.094
	c-0.452,0-0.825,0.369-0.846,0.84L21.5,67.439l0.877,11.959c0.022,0.467,0.394,0.836,0.846,0.836c0.449,0,0.822-0.37,0.848-0.838
	v0.003l0.992-11.96l-0.992-18.506C24.045,48.463,23.672,48.094,23.223,48.094z M14.245,54.525c-0.347,0-0.63,0.277-0.659,0.646
	l-0.987,12.263l0.987,11.862c0.027,0.367,0.312,0.644,0.659,0.644c0.342,0,0.626-0.276,0.656-0.644l1.122-11.862L14.901,55.17
	C14.871,54.803,14.587,54.525,14.245,54.525z M32.349,80.232c0.56,0,1.016-0.452,1.039-1.029l0.86-11.759l-0.858-24.638
	c-0.022-0.578-0.478-1.03-1.039-1.03c-0.564,0-1.021,0.453-1.039,1.032c0,0.001-0.763,24.636-0.763,24.636l0.763,11.763
	C31.329,79.78,31.785,80.232,32.349,80.232z M51.031,80.289c0.771,0,1.407-0.636,1.421-1.416v0.009v-0.009l0.6-11.421l-0.6-28.455
	c-0.013-0.779-0.65-1.415-1.421-1.415c-0.772,0-1.41,0.634-1.422,1.416l-0.535,28.443c0,0.019,0.535,11.438,0.535,11.438
	C49.621,79.653,50.26,80.289,51.031,80.289z M41.619,80.244c0.671,0,1.212-0.539,1.23-1.226v0.01l0.729-11.582l-0.73-24.815
	c-0.019-0.687-0.56-1.224-1.23-1.224c-0.675,0-1.216,0.537-1.231,1.224l-0.648,24.817l0.649,11.577
	C40.403,79.705,40.944,80.244,41.619,80.244z M18.717,80.136c0.399,0,0.721-0.319,0.751-0.739l1.058-11.962l-1.058-11.379
	c-0.029-0.422-0.352-0.738-0.751-0.738c-0.405,0-0.728,0.319-0.753,0.742l-0.932,11.375l0.932,11.96
	C17.99,79.816,18.312,80.136,18.717,80.136z M9.808,79.479c0.292,0,0.528-0.229,0.561-0.548l1.188-11.499L10.37,55.498
	c-0.034-0.32-0.271-0.551-0.562-0.551c-0.295,0-0.53,0.231-0.561,0.551L8.201,67.433l1.045,11.496
	C9.276,79.249,9.511,79.479,9.808,79.479z M46.306,42.218c-0.728,0-1.312,0.579-1.327,1.321L44.387,67.45l0.593,11.505
	c0.014,0.731,0.598,1.312,1.327,1.312c0.729,0,1.308-0.578,1.326-1.32v0.01l0.665-11.505l-0.665-23.915
	C47.614,42.797,47.035,42.218,46.306,42.218z M27.77,80.257c0.503,0,0.918-0.41,0.943-0.935l0.924-11.881l-0.924-22.737
	c-0.026-0.525-0.44-0.935-0.943-0.935c-0.508,0-0.922,0.41-0.945,0.935c0,0.001-0.818,22.737-0.818,22.737l0.82,11.886
	C26.847,79.847,27.261,80.257,27.77,80.257z M38.1,79.136v-0.007l0.795-11.683L38.1,41.978c-0.019-0.632-0.518-1.128-1.134-1.128
	c-0.619,0-1.117,0.495-1.134,1.128l-0.706,25.467l0.707,11.689c0.016,0.627,0.515,1.122,1.132,1.122
	c0.618,0,1.113-0.495,1.134-1.124V79.136z M98.226,52.766c-1.888,0-3.688,0.382-5.328,1.069
	C91.801,41.419,81.389,31.68,68.688,31.68c-3.107,0-6.137,0.611-8.812,1.646c-1.04,0.402-1.316,0.816-1.327,1.62V78.67
	c0.012,0.843,0.666,1.545,1.488,1.628c0.035,0.004,37.94,0.022,38.187,0.022c7.607,0,13.775-6.167,13.775-13.777
	C112,58.935,105.834,52.766,98.226,52.766z M55.734,34.908c-0.827,0-1.507,0.679-1.519,1.514l-0.621,31.034l0.622,11.263
	c0.011,0.822,0.69,1.501,1.518,1.501c0.825,0,1.504-0.679,1.516-1.513v0.013l0.677-11.264L57.25,36.419
	C57.238,35.587,56.56,34.908,55.734,34.908z"/>
</svg>
